<svg id="Layer_1" data-name="Layer 1" xmlns="http://www.w3.org/2000/svg" width="280" height="60" viewBox="0 0 280 60">
  <defs>
    <style>
      .cls-1 {
        fill: #8f8f8f;
      }
    </style>
  </defs>
  <title>ds-logo-</title>
  <g id="layer1">
    <g id="g10">
      <g id="g12">
        <path id="path14" class="cls-1" d="M92.2,44.2h6.5V24.3H92.2V44.2"/>
        <path id="path16" class="cls-1" d="M100,44.2h6.5V16.5H100V44.2"/>
        <path id="path18" class="cls-1" d="M107.8,44.2h6.5V16.5h-6.5V44.2"/>
        <path id="path20" class="cls-1" d="M177.4,24.3h6.5v2.1a4.9,4.9,0,0,1,4.3-2.3V31h-.7c-2.3,0-3.6,1.3-3.6,3.7v9.5h-6.5V24.3"/>
        <path id="path22" class="cls-1" d="M91.7,19.2A3.8,3.8,0,1,1,95.5,23a3.8,3.8,0,0,1-3.8-3.8"/>
        <path id="path24" class="cls-1" d="M176.1,24.4h-6.5v1.4A7.1,7.1,0,0,0,165,24c-5.6,0-9.4,4.4-9.4,10.5s4.2,10,9.5,10a7.7,7.7,0,0,0,4.5-1.4v1.1h6.5V24.4ZM165.4,38a3.8,3.8,0,1,1,3.7-3.8,3.8,3.8,0,0,1-3.7,3.8"/>
        <path id="path26" class="cls-1" d="M202.6,16.5v8.8a7.5,7.5,0,0,0-4.5-1.3c-5.4,0-9.6,4.3-9.6,10.4s4.1,10.1,9,10.1a7.3,7.3,0,0,0,5.2-2.1v1.8h6.4V16.5Zm-3.8,21.6a3.8,3.8,0,0,1,0-7.6,3.8,3.8,0,0,1,0,7.6"/>
        <path id="path28" class="cls-1" d="M126.7,24a7.5,7.5,0,0,0-4.5,1.3V16.5h-6.5V44.2h6.4V42.4a6.8,6.8,0,0,0,5.2,2.1c4.9,0,9-4.4,9-10.1S132.1,24,126.7,24M126,38.2a3.8,3.8,0,1,1,3.7-3.8,3.8,3.8,0,0,1-3.7,3.8"/>
        <path id="path30" class="cls-1" d="M81.9,24a7.5,7.5,0,0,0-4.5,1.3V16.5H70.9V44.2h6.4V42.4a6.9,6.9,0,0,0,5.2,2.1c4.9,0,9-4.4,9-10.1S87.3,24,81.9,24m-.7,14.2A3.8,3.8,0,1,1,85,34.4a3.8,3.8,0,0,1-3.8,3.8"/>
        <path id="path32" class="cls-1" d="M145.9,23.9a10.1,10.1,0,0,0-10,10.3,10.1,10.1,0,1,0,10-10.3m0,14a3.8,3.8,0,1,1,3.8-3.8,3.8,3.8,0,0,1-3.8,3.8"/>
      </g>
    </g>
  </g>
</svg>
